<mxfile host="Electron" agent="Mozilla/5.0 (X11; Linux x86_64) AppleWebKit/537.36 (KHTML, like Gecko) draw.io/24.7.8 Chrome/128.0.6613.36 Electron/32.0.1 Safari/537.36" version="24.7.8">
  <diagram name="PÃ¡gina-1" id="8-R6hgCV1WbbaG-lbZ5T">
    <mxGraphModel dx="611" dy="1033" grid="0" gridSize="10" guides="1" tooltips="1" connect="1" arrows="1" fold="1" page="0" pageScale="1" pageWidth="827" pageHeight="1169" math="0" shadow="0">
      <root>
        <mxCell id="0" />
        <mxCell id="1" parent="0" />
        <mxCell id="SQNqszE77WrPZV3DteI8-9" style="edgeStyle=orthogonalEdgeStyle;rounded=0;sketch=1;hachureGap=4;jiggle=2;curveFitting=1;orthogonalLoop=1;jettySize=auto;html=1;entryX=0;entryY=0.5;entryDx=0;entryDy=0;fontFamily=Architects Daughter;fontSource=https%3A%2F%2Ffonts.googleapis.com%2Fcss%3Ffamily%3DArchitects%2BDaughter;endArrow=none;endFill=0;" edge="1" parent="1" source="SQNqszE77WrPZV3DteI8-1" target="SQNqszE77WrPZV3DteI8-4">
          <mxGeometry relative="1" as="geometry" />
        </mxCell>
        <mxCell id="SQNqszE77WrPZV3DteI8-1" value="Cliente&lt;div&gt;&lt;br&gt;&lt;/div&gt;" style="rounded=0;whiteSpace=wrap;html=1;sketch=1;hachureGap=4;jiggle=2;curveFitting=1;fontFamily=Architects Daughter;fontSource=https%3A%2F%2Ffonts.googleapis.com%2Fcss%3Ffamily%3DArchitects%2BDaughter;movable=0;resizable=0;rotatable=0;deletable=0;editable=0;locked=1;connectable=0;" vertex="1" parent="1">
          <mxGeometry x="20" y="60" width="110" height="50" as="geometry" />
        </mxCell>
        <mxCell id="SQNqszE77WrPZV3DteI8-6" style="edgeStyle=orthogonalEdgeStyle;rounded=0;sketch=1;hachureGap=4;jiggle=2;curveFitting=1;orthogonalLoop=1;jettySize=auto;html=1;fontFamily=Architects Daughter;fontSource=https%3A%2F%2Ffonts.googleapis.com%2Fcss%3Ffamily%3DArchitects%2BDaughter;curved=0;entryX=1;entryY=0.5;entryDx=0;entryDy=0;endArrow=none;endFill=0;" edge="1" parent="1" source="SQNqszE77WrPZV3DteI8-2" target="SQNqszE77WrPZV3DteI8-5">
          <mxGeometry relative="1" as="geometry">
            <mxPoint x="640" y="250" as="targetPoint" />
            <Array as="points">
              <mxPoint x="665" y="200" />
            </Array>
          </mxGeometry>
        </mxCell>
        <mxCell id="SQNqszE77WrPZV3DteI8-79" style="edgeStyle=orthogonalEdgeStyle;rounded=0;sketch=1;hachureGap=4;jiggle=2;curveFitting=1;orthogonalLoop=1;jettySize=auto;html=1;exitX=0;exitY=0.75;exitDx=0;exitDy=0;entryX=1;entryY=0.5;entryDx=0;entryDy=0;fontFamily=Architects Daughter;fontSource=https%3A%2F%2Ffonts.googleapis.com%2Fcss%3Ffamily%3DArchitects%2BDaughter;endArrow=none;endFill=0;" edge="1" parent="1" source="SQNqszE77WrPZV3DteI8-2" target="SQNqszE77WrPZV3DteI8-55">
          <mxGeometry relative="1" as="geometry" />
        </mxCell>
        <mxCell id="SQNqszE77WrPZV3DteI8-89" style="edgeStyle=orthogonalEdgeStyle;rounded=0;sketch=1;hachureGap=4;jiggle=2;curveFitting=1;orthogonalLoop=1;jettySize=auto;html=1;exitX=1;exitY=0.25;exitDx=0;exitDy=0;entryX=0;entryY=0.5;entryDx=0;entryDy=0;fontFamily=Architects Daughter;fontSource=https%3A%2F%2Ffonts.googleapis.com%2Fcss%3Ffamily%3DArchitects%2BDaughter;endArrow=none;endFill=0;" edge="1" parent="1" source="SQNqszE77WrPZV3DteI8-2" target="SQNqszE77WrPZV3DteI8-87">
          <mxGeometry relative="1" as="geometry" />
        </mxCell>
        <mxCell id="SQNqszE77WrPZV3DteI8-90" style="edgeStyle=orthogonalEdgeStyle;rounded=0;sketch=1;hachureGap=4;jiggle=2;curveFitting=1;orthogonalLoop=1;jettySize=auto;html=1;exitX=1;exitY=0.75;exitDx=0;exitDy=0;entryX=0.5;entryY=1;entryDx=0;entryDy=0;fontFamily=Architects Daughter;fontSource=https%3A%2F%2Ffonts.googleapis.com%2Fcss%3Ffamily%3DArchitects%2BDaughter;endArrow=none;endFill=0;" edge="1" parent="1" source="SQNqszE77WrPZV3DteI8-2" target="SQNqszE77WrPZV3DteI8-88">
          <mxGeometry relative="1" as="geometry" />
        </mxCell>
        <mxCell id="SQNqszE77WrPZV3DteI8-92" style="edgeStyle=orthogonalEdgeStyle;rounded=0;sketch=1;hachureGap=4;jiggle=2;curveFitting=1;orthogonalLoop=1;jettySize=auto;html=1;exitX=0;exitY=0;exitDx=0;exitDy=0;entryX=0;entryY=0;entryDx=0;entryDy=0;fontFamily=Architects Daughter;fontSource=https%3A%2F%2Ffonts.googleapis.com%2Fcss%3Ffamily%3DArchitects%2BDaughter;endArrow=none;endFill=0;" edge="1" parent="1" source="SQNqszE77WrPZV3DteI8-2" target="SQNqszE77WrPZV3DteI8-85">
          <mxGeometry relative="1" as="geometry" />
        </mxCell>
        <mxCell id="SQNqszE77WrPZV3DteI8-2" value="&lt;div&gt;Produto&lt;/div&gt;" style="rounded=0;whiteSpace=wrap;html=1;sketch=1;hachureGap=4;jiggle=2;curveFitting=1;fontFamily=Architects Daughter;fontSource=https%3A%2F%2Ffonts.googleapis.com%2Fcss%3Ffamily%3DArchitects%2BDaughter;" vertex="1" parent="1">
          <mxGeometry x="610" y="30" width="110" height="50" as="geometry" />
        </mxCell>
        <mxCell id="SQNqszE77WrPZV3DteI8-69" style="edgeStyle=orthogonalEdgeStyle;rounded=0;sketch=1;hachureGap=4;jiggle=2;curveFitting=1;orthogonalLoop=1;jettySize=auto;html=1;exitX=1;exitY=0.25;exitDx=0;exitDy=0;entryX=0;entryY=0.5;entryDx=0;entryDy=0;fontFamily=Architects Daughter;fontSource=https%3A%2F%2Ffonts.googleapis.com%2Fcss%3Ffamily%3DArchitects%2BDaughter;endArrow=none;endFill=0;" edge="1" parent="1" source="SQNqszE77WrPZV3DteI8-3" target="SQNqszE77WrPZV3DteI8-61">
          <mxGeometry relative="1" as="geometry" />
        </mxCell>
        <mxCell id="SQNqszE77WrPZV3DteI8-70" style="edgeStyle=orthogonalEdgeStyle;rounded=0;sketch=1;hachureGap=4;jiggle=2;curveFitting=1;orthogonalLoop=1;jettySize=auto;html=1;entryX=0;entryY=1;entryDx=0;entryDy=0;fontFamily=Architects Daughter;fontSource=https%3A%2F%2Ffonts.googleapis.com%2Fcss%3Ffamily%3DArchitects%2BDaughter;endArrow=none;endFill=0;" edge="1" parent="1" source="SQNqszE77WrPZV3DteI8-3" target="SQNqszE77WrPZV3DteI8-62">
          <mxGeometry relative="1" as="geometry">
            <Array as="points">
              <mxPoint x="480" y="370" />
              <mxPoint x="480" y="388" />
              <mxPoint x="502" y="388" />
            </Array>
          </mxGeometry>
        </mxCell>
        <mxCell id="SQNqszE77WrPZV3DteI8-71" style="edgeStyle=orthogonalEdgeStyle;rounded=0;sketch=1;hachureGap=4;jiggle=2;curveFitting=1;orthogonalLoop=1;jettySize=auto;html=1;exitX=0.75;exitY=1;exitDx=0;exitDy=0;entryX=0;entryY=1;entryDx=0;entryDy=0;fontFamily=Architects Daughter;fontSource=https%3A%2F%2Ffonts.googleapis.com%2Fcss%3Ffamily%3DArchitects%2BDaughter;endArrow=none;endFill=0;" edge="1" parent="1" source="SQNqszE77WrPZV3DteI8-3" target="SQNqszE77WrPZV3DteI8-60">
          <mxGeometry relative="1" as="geometry" />
        </mxCell>
        <mxCell id="SQNqszE77WrPZV3DteI8-72" style="edgeStyle=orthogonalEdgeStyle;rounded=0;sketch=1;hachureGap=4;jiggle=2;curveFitting=1;orthogonalLoop=1;jettySize=auto;html=1;exitX=0.25;exitY=1;exitDx=0;exitDy=0;fontFamily=Architects Daughter;fontSource=https%3A%2F%2Ffonts.googleapis.com%2Fcss%3Ffamily%3DArchitects%2BDaughter;endArrow=none;endFill=0;" edge="1" parent="1" source="SQNqszE77WrPZV3DteI8-3" target="SQNqszE77WrPZV3DteI8-59">
          <mxGeometry relative="1" as="geometry" />
        </mxCell>
        <mxCell id="SQNqszE77WrPZV3DteI8-73" style="edgeStyle=orthogonalEdgeStyle;rounded=0;sketch=1;hachureGap=4;jiggle=2;curveFitting=1;orthogonalLoop=1;jettySize=auto;html=1;exitX=0;exitY=0.25;exitDx=0;exitDy=0;entryX=1;entryY=0;entryDx=0;entryDy=0;fontFamily=Architects Daughter;fontSource=https%3A%2F%2Ffonts.googleapis.com%2Fcss%3Ffamily%3DArchitects%2BDaughter;endArrow=none;endFill=0;" edge="1" parent="1" source="SQNqszE77WrPZV3DteI8-3" target="SQNqszE77WrPZV3DteI8-56">
          <mxGeometry relative="1" as="geometry" />
        </mxCell>
        <mxCell id="SQNqszE77WrPZV3DteI8-75" style="edgeStyle=orthogonalEdgeStyle;rounded=0;sketch=1;hachureGap=4;jiggle=2;curveFitting=1;orthogonalLoop=1;jettySize=auto;html=1;exitX=0;exitY=0.75;exitDx=0;exitDy=0;entryX=1;entryY=0;entryDx=0;entryDy=0;fontFamily=Architects Daughter;fontSource=https%3A%2F%2Ffonts.googleapis.com%2Fcss%3Ffamily%3DArchitects%2BDaughter;endArrow=none;endFill=0;" edge="1" parent="1" source="SQNqszE77WrPZV3DteI8-3" target="SQNqszE77WrPZV3DteI8-57">
          <mxGeometry relative="1" as="geometry" />
        </mxCell>
        <mxCell id="SQNqszE77WrPZV3DteI8-3" value="Venda" style="rounded=0;whiteSpace=wrap;html=1;sketch=1;hachureGap=4;jiggle=2;curveFitting=1;fontFamily=Architects Daughter;fontSource=https%3A%2F%2Ffonts.googleapis.com%2Fcss%3Ffamily%3DArchitects%2BDaughter;" vertex="1" parent="1">
          <mxGeometry x="310" y="340" width="150" height="60" as="geometry" />
        </mxCell>
        <mxCell id="SQNqszE77WrPZV3DteI8-8" style="edgeStyle=orthogonalEdgeStyle;rounded=0;sketch=1;hachureGap=4;jiggle=2;curveFitting=1;orthogonalLoop=1;jettySize=auto;html=1;fontFamily=Architects Daughter;fontSource=https%3A%2F%2Ffonts.googleapis.com%2Fcss%3Ffamily%3DArchitects%2BDaughter;entryX=0.111;entryY=0.027;entryDx=0;entryDy=0;entryPerimeter=0;" edge="1" parent="1" source="SQNqszE77WrPZV3DteI8-4" target="SQNqszE77WrPZV3DteI8-3">
          <mxGeometry relative="1" as="geometry" />
        </mxCell>
        <mxCell id="SQNqszE77WrPZV3DteI8-4" value="Participa&lt;div&gt;&lt;br&gt;&lt;/div&gt;" style="rhombus;whiteSpace=wrap;html=1;sketch=1;hachureGap=4;jiggle=2;curveFitting=1;fontFamily=Architects Daughter;fontSource=https%3A%2F%2Ffonts.googleapis.com%2Fcss%3Ffamily%3DArchitects%2BDaughter;" vertex="1" parent="1">
          <mxGeometry x="120" y="170" width="170" height="63" as="geometry" />
        </mxCell>
        <mxCell id="SQNqszE77WrPZV3DteI8-7" style="edgeStyle=orthogonalEdgeStyle;rounded=0;sketch=1;hachureGap=4;jiggle=2;curveFitting=1;orthogonalLoop=1;jettySize=auto;html=1;fontFamily=Architects Daughter;fontSource=https%3A%2F%2Ffonts.googleapis.com%2Fcss%3Ffamily%3DArchitects%2BDaughter;entryX=0.898;entryY=0.027;entryDx=0;entryDy=0;entryPerimeter=0;" edge="1" parent="1" source="SQNqszE77WrPZV3DteI8-5" target="SQNqszE77WrPZV3DteI8-3">
          <mxGeometry relative="1" as="geometry">
            <mxPoint x="390" y="250" as="targetPoint" />
          </mxGeometry>
        </mxCell>
        <mxCell id="SQNqszE77WrPZV3DteI8-5" value="&lt;div&gt;CompÃµe&lt;/div&gt;" style="rhombus;whiteSpace=wrap;html=1;sketch=1;hachureGap=4;jiggle=2;curveFitting=1;fontFamily=Architects Daughter;fontSource=https%3A%2F%2Ffonts.googleapis.com%2Fcss%3Ffamily%3DArchitects%2BDaughter;" vertex="1" parent="1">
          <mxGeometry x="480" y="170" width="170" height="60" as="geometry" />
        </mxCell>
        <mxCell id="SQNqszE77WrPZV3DteI8-10" value="" style="ellipse;html=1;hachureGap=4;fontFamily=Architects Daughter;fontSource=https%3A%2F%2Ffonts.googleapis.com%2Fcss%3Ffamily%3DArchitects%2BDaughter;fillColor=#030303;gradientColor=none;strokeWidth=1.1810999999999998;fillStyle=auto;movable=0;resizable=0;rotatable=0;deletable=0;editable=0;locked=1;connectable=0;" vertex="1" parent="1">
          <mxGeometry x="40" y="-30" width="10" height="10" as="geometry" />
        </mxCell>
        <mxCell id="SQNqszE77WrPZV3DteI8-51" style="edgeStyle=orthogonalEdgeStyle;rounded=0;sketch=1;hachureGap=4;jiggle=2;curveFitting=1;orthogonalLoop=1;jettySize=auto;html=1;entryX=0.25;entryY=0;entryDx=0;entryDy=0;fontFamily=Architects Daughter;fontSource=https%3A%2F%2Ffonts.googleapis.com%2Fcss%3Ffamily%3DArchitects%2BDaughter;endArrow=none;endFill=0;curved=1;movable=0;resizable=0;rotatable=0;deletable=0;editable=0;locked=1;connectable=0;" edge="1" parent="1" source="SQNqszE77WrPZV3DteI8-12" target="SQNqszE77WrPZV3DteI8-1">
          <mxGeometry relative="1" as="geometry" />
        </mxCell>
        <mxCell id="SQNqszE77WrPZV3DteI8-12" value="" style="ellipse;html=1;hachureGap=4;fontFamily=Architects Daughter;fontSource=https%3A%2F%2Ffonts.googleapis.com%2Fcss%3Ffamily%3DArchitects%2BDaughter;fillColor=none;strokeColor=default;movable=0;resizable=0;rotatable=0;deletable=0;editable=0;locked=1;connectable=0;" vertex="1" parent="1">
          <mxGeometry x="60" width="10" height="10" as="geometry" />
        </mxCell>
        <mxCell id="SQNqszE77WrPZV3DteI8-18" style="edgeStyle=orthogonalEdgeStyle;rounded=0;sketch=1;hachureGap=4;jiggle=2;curveFitting=1;orthogonalLoop=1;jettySize=auto;html=1;entryX=0.013;entryY=0.1;entryDx=0;entryDy=0;entryPerimeter=0;fontFamily=Architects Daughter;fontSource=https%3A%2F%2Ffonts.googleapis.com%2Fcss%3Ffamily%3DArchitects%2BDaughter;endArrow=none;endFill=0;exitX=0;exitY=0.5;exitDx=0;exitDy=0;curved=1;strokeColor=#ffffff;movable=0;resizable=0;rotatable=0;deletable=0;editable=0;locked=1;connectable=0;" edge="1" parent="1" source="SQNqszE77WrPZV3DteI8-10" target="SQNqszE77WrPZV3DteI8-1">
          <mxGeometry relative="1" as="geometry" />
        </mxCell>
        <mxCell id="SQNqszE77WrPZV3DteI8-19" value="ID_Cliente" style="text;html=1;align=center;verticalAlign=middle;whiteSpace=wrap;rounded=0;fontFamily=Architects Daughter;fontSource=https%3A%2F%2Ffonts.googleapis.com%2Fcss%3Ffamily%3DArchitects%2BDaughter;fillColor=#030303;movable=0;resizable=0;rotatable=0;deletable=0;editable=0;locked=1;connectable=0;" vertex="1" parent="1">
          <mxGeometry x="60" y="-40" width="60" height="30" as="geometry" />
        </mxCell>
        <mxCell id="SQNqszE77WrPZV3DteI8-20" value="Telefone" style="text;html=1;align=center;verticalAlign=middle;whiteSpace=wrap;rounded=0;fontFamily=Architects Daughter;fontSource=https%3A%2F%2Ffonts.googleapis.com%2Fcss%3Ffamily%3DArchitects%2BDaughter;movable=0;resizable=0;rotatable=0;deletable=0;editable=0;locked=1;connectable=0;" vertex="1" parent="1">
          <mxGeometry x="-80" y="-30" width="50" height="30" as="geometry" />
        </mxCell>
        <mxCell id="SQNqszE77WrPZV3DteI8-23" value="NÃºmero" style="text;html=1;align=center;verticalAlign=middle;whiteSpace=wrap;rounded=0;fontFamily=Architects Daughter;fontSource=https%3A%2F%2Ffonts.googleapis.com%2Fcss%3Ffamily%3DArchitects%2BDaughter;movable=0;resizable=0;rotatable=0;deletable=0;editable=0;locked=1;connectable=0;" vertex="1" parent="1">
          <mxGeometry x="-100" y="70" width="60" height="30" as="geometry" />
        </mxCell>
        <mxCell id="SQNqszE77WrPZV3DteI8-24" value="Rua" style="text;html=1;align=center;verticalAlign=middle;whiteSpace=wrap;rounded=0;fontFamily=Architects Daughter;fontSource=https%3A%2F%2Ffonts.googleapis.com%2Fcss%3Ffamily%3DArchitects%2BDaughter;movable=0;resizable=0;rotatable=0;deletable=0;editable=0;locked=1;connectable=0;" vertex="1" parent="1">
          <mxGeometry x="-90" y="20" width="50" height="25" as="geometry" />
        </mxCell>
        <mxCell id="SQNqszE77WrPZV3DteI8-25" value="Bairro" style="text;html=1;align=center;verticalAlign=middle;whiteSpace=wrap;rounded=0;fontFamily=Architects Daughter;fontSource=https%3A%2F%2Ffonts.googleapis.com%2Fcss%3Ffamily%3DArchitects%2BDaughter;movable=0;resizable=0;rotatable=0;deletable=0;editable=0;locked=1;connectable=0;" vertex="1" parent="1">
          <mxGeometry x="-75" y="130" width="60" height="30" as="geometry" />
        </mxCell>
        <mxCell id="SQNqszE77WrPZV3DteI8-26" value="(1,n)" style="text;html=1;align=center;verticalAlign=middle;whiteSpace=wrap;rounded=0;fontFamily=Architects Daughter;fontSource=https%3A%2F%2Ffonts.googleapis.com%2Fcss%3Ffamily%3DArchitects%2BDaughter;movable=1;resizable=1;rotatable=1;deletable=1;editable=1;locked=0;connectable=1;" vertex="1" parent="1">
          <mxGeometry x="90" y="120" width="30" height="20" as="geometry" />
        </mxCell>
        <mxCell id="SQNqszE77WrPZV3DteI8-30" value="" style="ellipse;html=1;hachureGap=4;fontFamily=Architects Daughter;fontSource=https%3A%2F%2Ffonts.googleapis.com%2Fcss%3Ffamily%3DArchitects%2BDaughter;fillColor=none;strokeColor=default;movable=0;resizable=0;rotatable=0;deletable=0;editable=0;locked=1;connectable=0;" vertex="1" parent="1">
          <mxGeometry x="-25" y="-20" width="10" height="10" as="geometry" />
        </mxCell>
        <mxCell id="SQNqszE77WrPZV3DteI8-31" value="" style="ellipse;html=1;hachureGap=4;fontFamily=Architects Daughter;fontSource=https%3A%2F%2Ffonts.googleapis.com%2Fcss%3Ffamily%3DArchitects%2BDaughter;fillColor=none;strokeColor=default;movable=0;resizable=0;rotatable=0;deletable=0;editable=0;locked=1;connectable=0;" vertex="1" parent="1">
          <mxGeometry x="-40" y="27.5" width="10" height="10" as="geometry" />
        </mxCell>
        <mxCell id="SQNqszE77WrPZV3DteI8-42" style="edgeStyle=orthogonalEdgeStyle;rounded=0;sketch=1;hachureGap=4;jiggle=2;curveFitting=1;orthogonalLoop=1;jettySize=auto;html=1;entryX=0;entryY=0.75;entryDx=0;entryDy=0;fontFamily=Architects Daughter;fontSource=https%3A%2F%2Ffonts.googleapis.com%2Fcss%3Ffamily%3DArchitects%2BDaughter;curved=1;endArrow=none;endFill=0;movable=0;resizable=0;rotatable=0;deletable=0;editable=0;locked=1;connectable=0;" edge="1" parent="1" source="SQNqszE77WrPZV3DteI8-32" target="SQNqszE77WrPZV3DteI8-1">
          <mxGeometry relative="1" as="geometry" />
        </mxCell>
        <mxCell id="SQNqszE77WrPZV3DteI8-32" value="" style="ellipse;html=1;hachureGap=4;fontFamily=Architects Daughter;fontSource=https%3A%2F%2Ffonts.googleapis.com%2Fcss%3Ffamily%3DArchitects%2BDaughter;fillColor=none;strokeColor=default;movable=0;resizable=0;rotatable=0;deletable=0;editable=0;locked=1;connectable=0;" vertex="1" parent="1">
          <mxGeometry x="-40" y="80" width="10" height="10" as="geometry" />
        </mxCell>
        <mxCell id="SQNqszE77WrPZV3DteI8-33" value="" style="ellipse;html=1;hachureGap=4;fontFamily=Architects Daughter;fontSource=https%3A%2F%2Ffonts.googleapis.com%2Fcss%3Ffamily%3DArchitects%2BDaughter;fillColor=none;strokeColor=default;movable=0;resizable=0;rotatable=0;deletable=0;editable=0;locked=1;connectable=0;" vertex="1" parent="1">
          <mxGeometry x="-20" y="140" width="10" height="10" as="geometry" />
        </mxCell>
        <mxCell id="SQNqszE77WrPZV3DteI8-38" style="edgeStyle=orthogonalEdgeStyle;rounded=0;sketch=1;hachureGap=4;jiggle=2;curveFitting=1;orthogonalLoop=1;jettySize=auto;html=1;exitX=1;exitY=0.5;exitDx=0;exitDy=0;entryX=0.005;entryY=0.08;entryDx=0;entryDy=0;entryPerimeter=0;fontFamily=Architects Daughter;fontSource=https%3A%2F%2Ffonts.googleapis.com%2Fcss%3Ffamily%3DArchitects%2BDaughter;curved=1;endArrow=none;endFill=0;movable=0;resizable=0;rotatable=0;deletable=0;editable=0;locked=1;connectable=0;" edge="1" parent="1" source="SQNqszE77WrPZV3DteI8-30" target="SQNqszE77WrPZV3DteI8-1">
          <mxGeometry relative="1" as="geometry">
            <Array as="points">
              <mxPoint x="5" y="-15" />
              <mxPoint x="5" y="64" />
            </Array>
          </mxGeometry>
        </mxCell>
        <mxCell id="SQNqszE77WrPZV3DteI8-40" style="edgeStyle=orthogonalEdgeStyle;rounded=0;sketch=1;hachureGap=4;jiggle=2;curveFitting=1;orthogonalLoop=1;jettySize=auto;html=1;fontFamily=Architects Daughter;fontSource=https%3A%2F%2Ffonts.googleapis.com%2Fcss%3Ffamily%3DArchitects%2BDaughter;curved=1;entryX=0;entryY=0.5;entryDx=0;entryDy=0;endArrow=none;endFill=0;movable=0;resizable=0;rotatable=0;deletable=0;editable=0;locked=1;connectable=0;" edge="1" parent="1" source="SQNqszE77WrPZV3DteI8-31" target="SQNqszE77WrPZV3DteI8-1">
          <mxGeometry relative="1" as="geometry">
            <mxPoint y="85" as="targetPoint" />
          </mxGeometry>
        </mxCell>
        <mxCell id="SQNqszE77WrPZV3DteI8-43" style="edgeStyle=orthogonalEdgeStyle;rounded=0;sketch=1;hachureGap=4;jiggle=2;curveFitting=1;orthogonalLoop=1;jettySize=auto;html=1;entryX=0.13;entryY=0.937;entryDx=0;entryDy=0;entryPerimeter=0;fontFamily=Architects Daughter;fontSource=https%3A%2F%2Ffonts.googleapis.com%2Fcss%3Ffamily%3DArchitects%2BDaughter;endArrow=none;endFill=0;movable=0;resizable=0;rotatable=0;deletable=0;editable=0;locked=1;connectable=0;" edge="1" parent="1" source="SQNqszE77WrPZV3DteI8-33" target="SQNqszE77WrPZV3DteI8-1">
          <mxGeometry relative="1" as="geometry" />
        </mxCell>
        <mxCell id="SQNqszE77WrPZV3DteI8-45" value="" style="ellipse;html=1;hachureGap=4;fontFamily=Architects Daughter;fontSource=https%3A%2F%2Ffonts.googleapis.com%2Fcss%3Ffamily%3DArchitects%2BDaughter;fillColor=none;strokeColor=default;movable=0;resizable=0;rotatable=0;deletable=0;editable=0;locked=1;connectable=0;" vertex="1" parent="1">
          <mxGeometry x="85" y="27.5" width="10" height="10" as="geometry" />
        </mxCell>
        <mxCell id="SQNqszE77WrPZV3DteI8-46" value="" style="ellipse;html=1;hachureGap=4;fontFamily=Architects Daughter;fontSource=https%3A%2F%2Ffonts.googleapis.com%2Fcss%3Ffamily%3DArchitects%2BDaughter;fillColor=none;strokeColor=default;movable=0;resizable=0;rotatable=0;deletable=0;editable=0;locked=1;connectable=0;" vertex="1" parent="1">
          <mxGeometry x="160" y="65" width="10" height="10" as="geometry" />
        </mxCell>
        <mxCell id="SQNqszE77WrPZV3DteI8-48" value="RG" style="text;html=1;align=center;verticalAlign=middle;whiteSpace=wrap;rounded=0;fontFamily=Architects Daughter;fontSource=https%3A%2F%2Ffonts.googleapis.com%2Fcss%3Ffamily%3DArchitects%2BDaughter;movable=0;resizable=0;rotatable=0;deletable=0;editable=0;locked=1;connectable=0;" vertex="1" parent="1">
          <mxGeometry x="60" y="-10" width="50" height="30" as="geometry" />
        </mxCell>
        <mxCell id="SQNqszE77WrPZV3DteI8-49" value="Nome" style="text;html=1;align=center;verticalAlign=middle;whiteSpace=wrap;rounded=0;fontFamily=Architects Daughter;fontSource=https%3A%2F%2Ffonts.googleapis.com%2Fcss%3Ffamily%3DArchitects%2BDaughter;movable=0;resizable=0;rotatable=0;deletable=0;editable=0;locked=1;connectable=0;" vertex="1" parent="1">
          <mxGeometry x="95" y="17.5" width="50" height="30" as="geometry" />
        </mxCell>
        <mxCell id="SQNqszE77WrPZV3DteI8-50" value="Sobrenome" style="text;html=1;align=center;verticalAlign=middle;whiteSpace=wrap;rounded=0;fontFamily=Architects Daughter;fontSource=https%3A%2F%2Ffonts.googleapis.com%2Fcss%3Ffamily%3DArchitects%2BDaughter;movable=0;resizable=0;rotatable=0;deletable=0;editable=0;locked=1;connectable=0;" vertex="1" parent="1">
          <mxGeometry x="170" y="55" width="70" height="30" as="geometry" />
        </mxCell>
        <mxCell id="SQNqszE77WrPZV3DteI8-53" style="edgeStyle=orthogonalEdgeStyle;rounded=0;sketch=1;hachureGap=4;jiggle=2;curveFitting=1;orthogonalLoop=1;jettySize=auto;html=1;entryX=0.457;entryY=-0.057;entryDx=0;entryDy=0;entryPerimeter=0;fontFamily=Architects Daughter;fontSource=https%3A%2F%2Ffonts.googleapis.com%2Fcss%3Ffamily%3DArchitects%2BDaughter;endArrow=none;endFill=0;movable=0;resizable=0;rotatable=0;deletable=0;editable=0;locked=1;connectable=0;" edge="1" parent="1" source="SQNqszE77WrPZV3DteI8-45" target="SQNqszE77WrPZV3DteI8-1">
          <mxGeometry relative="1" as="geometry" />
        </mxCell>
        <mxCell id="SQNqszE77WrPZV3DteI8-54" style="edgeStyle=orthogonalEdgeStyle;rounded=0;sketch=1;hachureGap=4;jiggle=2;curveFitting=1;orthogonalLoop=1;jettySize=auto;html=1;entryX=0.992;entryY=0.171;entryDx=0;entryDy=0;entryPerimeter=0;fontFamily=Architects Daughter;fontSource=https%3A%2F%2Ffonts.googleapis.com%2Fcss%3Ffamily%3DArchitects%2BDaughter;endArrow=none;endFill=0;movable=0;resizable=0;rotatable=0;deletable=0;editable=0;locked=1;connectable=0;" edge="1" parent="1" source="SQNqszE77WrPZV3DteI8-46" target="SQNqszE77WrPZV3DteI8-1">
          <mxGeometry relative="1" as="geometry" />
        </mxCell>
        <mxCell id="SQNqszE77WrPZV3DteI8-55" value="" style="ellipse;html=1;hachureGap=4;fontFamily=Architects Daughter;fontSource=https%3A%2F%2Ffonts.googleapis.com%2Fcss%3Ffamily%3DArchitects%2BDaughter;fillColor=#030303;gradientColor=none;strokeWidth=1.1810999999999998;fillStyle=auto;" vertex="1" parent="1">
          <mxGeometry x="569" y="63" width="10" height="10" as="geometry" />
        </mxCell>
        <mxCell id="SQNqszE77WrPZV3DteI8-56" value="" style="ellipse;html=1;hachureGap=4;fontFamily=Architects Daughter;fontSource=https%3A%2F%2Ffonts.googleapis.com%2Fcss%3Ffamily%3DArchitects%2BDaughter;fillColor=#030303;gradientColor=none;strokeWidth=1.1810999999999998;fillStyle=auto;" vertex="1" parent="1">
          <mxGeometry x="265" y="343" width="10" height="10" as="geometry" />
        </mxCell>
        <mxCell id="SQNqszE77WrPZV3DteI8-57" value="" style="ellipse;html=1;hachureGap=4;fontFamily=Architects Daughter;fontSource=https%3A%2F%2Ffonts.googleapis.com%2Fcss%3Ffamily%3DArchitects%2BDaughter;fillColor=none;gradientColor=none;strokeWidth=1.1810999999999998;fillStyle=auto;" vertex="1" parent="1">
          <mxGeometry x="265" y="382" width="10" height="10" as="geometry" />
        </mxCell>
        <mxCell id="SQNqszE77WrPZV3DteI8-59" value="" style="ellipse;html=1;hachureGap=4;fontFamily=Architects Daughter;fontSource=https%3A%2F%2Ffonts.googleapis.com%2Fcss%3Ffamily%3DArchitects%2BDaughter;fillColor=none;gradientColor=none;strokeWidth=1.1810999999999998;fillStyle=auto;" vertex="1" parent="1">
          <mxGeometry x="310" y="460" width="10" height="10" as="geometry" />
        </mxCell>
        <mxCell id="SQNqszE77WrPZV3DteI8-60" value="" style="ellipse;html=1;hachureGap=4;fontFamily=Architects Daughter;fontSource=https%3A%2F%2Ffonts.googleapis.com%2Fcss%3Ffamily%3DArchitects%2BDaughter;fillColor=none;gradientColor=none;strokeWidth=1.1810999999999998;fillStyle=auto;" vertex="1" parent="1">
          <mxGeometry x="415" y="427" width="10" height="10" as="geometry" />
        </mxCell>
        <mxCell id="SQNqszE77WrPZV3DteI8-61" value="" style="ellipse;html=1;hachureGap=4;fontFamily=Architects Daughter;fontSource=https%3A%2F%2Ffonts.googleapis.com%2Fcss%3Ffamily%3DArchitects%2BDaughter;fillColor=none;gradientColor=none;strokeWidth=1.1810999999999998;fillStyle=auto;" vertex="1" parent="1">
          <mxGeometry x="500" y="345" width="10" height="10" as="geometry" />
        </mxCell>
        <mxCell id="SQNqszE77WrPZV3DteI8-62" value="" style="ellipse;html=1;hachureGap=4;fontFamily=Architects Daughter;fontSource=https%3A%2F%2Ffonts.googleapis.com%2Fcss%3Ffamily%3DArchitects%2BDaughter;fillColor=none;gradientColor=none;strokeWidth=1.1810999999999998;fillStyle=auto;" vertex="1" parent="1">
          <mxGeometry x="500" y="382" width="10" height="10" as="geometry" />
        </mxCell>
        <mxCell id="SQNqszE77WrPZV3DteI8-63" value="ID_Transacao" style="text;html=1;align=center;verticalAlign=middle;whiteSpace=wrap;rounded=0;fontFamily=Architects Daughter;fontSource=https%3A%2F%2Ffonts.googleapis.com%2Fcss%3Ffamily%3DArchitects%2BDaughter;fillColor=#000000;" vertex="1" parent="1">
          <mxGeometry x="174" y="333" width="84" height="30" as="geometry" />
        </mxCell>
        <mxCell id="SQNqszE77WrPZV3DteI8-64" value="Nota_fiscal" style="text;html=1;align=center;verticalAlign=middle;whiteSpace=wrap;rounded=0;fontFamily=Architects Daughter;fontSource=https%3A%2F%2Ffonts.googleapis.com%2Fcss%3Ffamily%3DArchitects%2BDaughter;" vertex="1" parent="1">
          <mxGeometry x="185" y="372" width="84" height="30" as="geometry" />
        </mxCell>
        <mxCell id="SQNqszE77WrPZV3DteI8-65" value="ID_Cliente" style="text;html=1;align=center;verticalAlign=middle;whiteSpace=wrap;rounded=0;fontFamily=Architects Daughter;fontSource=https%3A%2F%2Ffonts.googleapis.com%2Fcss%3Ffamily%3DArchitects%2BDaughter;fillColor=#a20025;fontColor=#ffffff;strokeColor=#6F0000;" vertex="1" parent="1">
          <mxGeometry x="328" y="450" width="84" height="30" as="geometry" />
        </mxCell>
        <mxCell id="SQNqszE77WrPZV3DteI8-66" value="Data_Compra" style="text;html=1;align=center;verticalAlign=middle;whiteSpace=wrap;rounded=0;fontFamily=Architects Daughter;fontSource=https%3A%2F%2Ffonts.googleapis.com%2Fcss%3Ffamily%3DArchitects%2BDaughter;" vertex="1" parent="1">
          <mxGeometry x="426" y="417" width="84" height="30" as="geometry" />
        </mxCell>
        <mxCell id="SQNqszE77WrPZV3DteI8-67" value="ID_Produto" style="text;html=1;align=center;verticalAlign=middle;whiteSpace=wrap;rounded=0;fontFamily=Architects Daughter;fontSource=https%3A%2F%2Ffonts.googleapis.com%2Fcss%3Ffamily%3DArchitects%2BDaughter;fillColor=#a20025;fontColor=#ffffff;strokeColor=#6F0000;" vertex="1" parent="1">
          <mxGeometry x="514" y="335" width="84" height="30" as="geometry" />
        </mxCell>
        <mxCell id="SQNqszE77WrPZV3DteI8-68" value="Quantidade" style="text;html=1;align=center;verticalAlign=middle;whiteSpace=wrap;rounded=0;fontFamily=Architects Daughter;fontSource=https%3A%2F%2Ffonts.googleapis.com%2Fcss%3Ffamily%3DArchitects%2BDaughter;" vertex="1" parent="1">
          <mxGeometry x="510" y="372" width="84" height="30" as="geometry" />
        </mxCell>
        <mxCell id="SQNqszE77WrPZV3DteI8-76" value="(0,n)" style="text;html=1;align=center;verticalAlign=middle;whiteSpace=wrap;rounded=0;fontFamily=Architects Daughter;fontSource=https%3A%2F%2Ffonts.googleapis.com%2Fcss%3Ffamily%3DArchitects%2BDaughter;movable=1;resizable=1;rotatable=1;deletable=1;editable=1;locked=0;connectable=1;" vertex="1" parent="1">
          <mxGeometry x="290" y="308" width="30" height="20" as="geometry" />
        </mxCell>
        <mxCell id="SQNqszE77WrPZV3DteI8-77" value="(0,n)" style="text;html=1;align=center;verticalAlign=middle;whiteSpace=wrap;rounded=0;fontFamily=Architects Daughter;fontSource=https%3A%2F%2Ffonts.googleapis.com%2Fcss%3Ffamily%3DArchitects%2BDaughter;movable=1;resizable=1;rotatable=1;deletable=1;editable=1;locked=0;connectable=1;" vertex="1" parent="1">
          <mxGeometry x="410" y="308" width="30" height="20" as="geometry" />
        </mxCell>
        <mxCell id="SQNqszE77WrPZV3DteI8-78" value="(1,n)" style="text;html=1;align=center;verticalAlign=middle;whiteSpace=wrap;rounded=0;fontFamily=Architects Daughter;fontSource=https%3A%2F%2Ffonts.googleapis.com%2Fcss%3Ffamily%3DArchitects%2BDaughter;movable=1;resizable=1;rotatable=1;deletable=1;editable=1;locked=0;connectable=1;" vertex="1" parent="1">
          <mxGeometry x="627" y="85" width="30" height="20" as="geometry" />
        </mxCell>
        <mxCell id="SQNqszE77WrPZV3DteI8-80" value="ID_Produto" style="text;html=1;align=center;verticalAlign=middle;whiteSpace=wrap;rounded=0;fontFamily=Architects Daughter;fontSource=https%3A%2F%2Ffonts.googleapis.com%2Fcss%3Ffamily%3DArchitects%2BDaughter;fillColor=#000000;" vertex="1" parent="1">
          <mxGeometry x="490" y="53" width="76" height="30" as="geometry" />
        </mxCell>
        <mxCell id="SQNqszE77WrPZV3DteI8-81" value="Nome_Produto" style="text;html=1;align=center;verticalAlign=middle;whiteSpace=wrap;rounded=0;fontFamily=Architects Daughter;fontSource=https%3A%2F%2Ffonts.googleapis.com%2Fcss%3Ffamily%3DArchitects%2BDaughter;" vertex="1" parent="1">
          <mxGeometry x="633" y="-54" width="76" height="30" as="geometry" />
        </mxCell>
        <mxCell id="SQNqszE77WrPZV3DteI8-82" value="Tipo_Produto" style="text;html=1;align=center;verticalAlign=middle;whiteSpace=wrap;rounded=0;fontFamily=Architects Daughter;fontSource=https%3A%2F%2Ffonts.googleapis.com%2Fcss%3Ffamily%3DArchitects%2BDaughter;" vertex="1" parent="1">
          <mxGeometry x="686" y="-20" width="76" height="30" as="geometry" />
        </mxCell>
        <mxCell id="SQNqszE77WrPZV3DteI8-83" value="Preco" style="text;html=1;align=center;verticalAlign=middle;whiteSpace=wrap;rounded=0;fontFamily=Architects Daughter;fontSource=https%3A%2F%2Ffonts.googleapis.com%2Fcss%3Ffamily%3DArchitects%2BDaughter;" vertex="1" parent="1">
          <mxGeometry x="732" y="25" width="76" height="30" as="geometry" />
        </mxCell>
        <mxCell id="SQNqszE77WrPZV3DteI8-84" value="Qtd_Estoque" style="text;html=1;align=center;verticalAlign=middle;whiteSpace=wrap;rounded=0;fontFamily=Architects Daughter;fontSource=https%3A%2F%2Ffonts.googleapis.com%2Fcss%3Ffamily%3DArchitects%2BDaughter;" vertex="1" parent="1">
          <mxGeometry x="747" y="57" width="76" height="30" as="geometry" />
        </mxCell>
        <mxCell id="SQNqszE77WrPZV3DteI8-85" value="" style="ellipse;html=1;hachureGap=4;fontFamily=Architects Daughter;fontSource=https%3A%2F%2Ffonts.googleapis.com%2Fcss%3Ffamily%3DArchitects%2BDaughter;fillColor=none;gradientColor=none;strokeWidth=1.1810999999999998;fillStyle=auto;" vertex="1" parent="1">
          <mxGeometry x="610" y="-44" width="10" height="10" as="geometry" />
        </mxCell>
        <mxCell id="SQNqszE77WrPZV3DteI8-86" value="" style="ellipse;html=1;hachureGap=4;fontFamily=Architects Daughter;fontSource=https%3A%2F%2Ffonts.googleapis.com%2Fcss%3Ffamily%3DArchitects%2BDaughter;fillColor=none;gradientColor=none;strokeWidth=1.1810999999999998;fillStyle=auto;" vertex="1" parent="1">
          <mxGeometry x="666" y="-10" width="10" height="10" as="geometry" />
        </mxCell>
        <mxCell id="SQNqszE77WrPZV3DteI8-87" value="" style="ellipse;html=1;hachureGap=4;fontFamily=Architects Daughter;fontSource=https%3A%2F%2Ffonts.googleapis.com%2Fcss%3Ffamily%3DArchitects%2BDaughter;fillColor=none;gradientColor=none;strokeWidth=1.1810999999999998;fillStyle=auto;" vertex="1" parent="1">
          <mxGeometry x="732" y="35" width="10" height="10" as="geometry" />
        </mxCell>
        <mxCell id="SQNqszE77WrPZV3DteI8-88" value="" style="ellipse;html=1;hachureGap=4;fontFamily=Architects Daughter;fontSource=https%3A%2F%2Ffonts.googleapis.com%2Fcss%3Ffamily%3DArchitects%2BDaughter;fillColor=none;gradientColor=none;strokeWidth=1.1810999999999998;fillStyle=auto;" vertex="1" parent="1">
          <mxGeometry x="732" y="65" width="10" height="10" as="geometry" />
        </mxCell>
        <mxCell id="SQNqszE77WrPZV3DteI8-91" style="edgeStyle=orthogonalEdgeStyle;rounded=0;sketch=1;hachureGap=4;jiggle=2;curveFitting=1;orthogonalLoop=1;jettySize=auto;html=1;entryX=0.34;entryY=0.42;entryDx=0;entryDy=0;entryPerimeter=0;fontFamily=Architects Daughter;fontSource=https%3A%2F%2Ffonts.googleapis.com%2Fcss%3Ffamily%3DArchitects%2BDaughter;endArrow=none;endFill=0;" edge="1" parent="1" source="SQNqszE77WrPZV3DteI8-2" target="SQNqszE77WrPZV3DteI8-86">
          <mxGeometry relative="1" as="geometry" />
        </mxCell>
      </root>
    </mxGraphModel>
  </diagram>
</mxfile>
